<svg width="20" height="20" viewBox="0 0 20 20" fill="none" xmlns="http://www.w3.org/2000/svg">
<path d="M18.2664 9.66658C16.5831 5.75825 13.4164 3.33325 9.99969 3.33325C6.58302 3.33325 3.41635 5.75825 1.73302 9.66658C1.68714 9.77172 1.66345 9.8852 1.66345 9.99992C1.66345 10.1146 1.68714 10.2281 1.73302 10.3333C3.41635 14.2416 6.58302 16.6666 9.99969 16.6666C13.4164 16.6666 16.5831 14.2416 18.2664 10.3333C18.3123 10.2281 18.336 10.1146 18.336 9.99992C18.336 9.8852 18.3123 9.77172 18.2664 9.66658ZM9.99969 15C7.35802 15 4.85802 13.0916 3.41635 9.99992C4.85802 6.90825 7.35802 4.99992 9.99969 4.99992C12.6414 4.99992 15.1414 6.90825 16.5831 9.99992C15.1414 13.0916 12.6414 15 9.99969 15ZM9.99969 6.66658C9.34042 6.66658 8.69595 6.86208 8.14779 7.22835C7.59962 7.59462 7.17238 8.11522 6.92009 8.7243C6.6678 9.33339 6.60179 10.0036 6.7304 10.6502C6.85902 11.2968 7.17649 11.8908 7.64266 12.3569C8.10884 12.8231 8.70278 13.1406 9.34939 13.2692C9.99599 13.3979 10.6662 13.3318 11.2753 13.0795C11.8844 12.8272 12.405 12.4 12.7713 11.8518C13.1376 11.3037 13.3331 10.6592 13.3331 9.99992C13.3331 9.11586 12.9819 8.26801 12.3568 7.64289C11.7316 7.01777 10.8837 6.66658 9.99969 6.66658ZM9.99969 11.6666C9.67005 11.6666 9.34782 11.5688 9.07374 11.3857C8.79966 11.2026 8.58603 10.9423 8.45989 10.6377C8.33374 10.3332 8.30074 9.99807 8.36504 9.67477C8.42935 9.35146 8.58809 9.05449 8.82118 8.82141C9.05426 8.58832 9.35124 8.42958 9.67454 8.36527C9.99784 8.30097 10.333 8.33397 10.6375 8.46012C10.942 8.58626 11.2023 8.79988 11.3855 9.07397C11.5686 9.34805 11.6664 9.67028 11.6664 9.99992C11.6664 10.4419 11.4908 10.8659 11.1782 11.1784C10.8656 11.491 10.4417 11.6666 9.99969 11.6666Z" fill="#BAC1CE"/>
</svg>
