<svg width="24" height="24" viewBox="0 0 24 24" fill="none" xmlns="http://www.w3.org/2000/svg">
<g clip-path="url(#clip0_2418_14106)">
<path d="M23.7089 12.2242C23.7089 11.2409 23.6291 10.5234 23.4565 9.7793H12.2285V14.2173H18.8191C18.6863 15.3202 17.9687 16.9811 16.3742 18.0972L16.3518 18.2458L19.9019 20.996L20.1479 21.0206C22.4067 18.9344 23.7089 15.8649 23.7089 12.2242Z" fill="#4285F4"/>
<path d="M12.2291 23.9178C15.4579 23.9178 18.1686 22.8547 20.1485 21.0211L16.3748 18.0978C15.365 18.802 14.0096 19.2937 12.2291 19.2937C9.06669 19.2937 6.38263 17.2076 5.42584 14.3242L5.28559 14.3361L1.59417 17.1929L1.5459 17.3271C3.51243 21.2337 7.55185 23.9178 12.2291 23.9178Z" fill="#34A853"/>
<path d="M5.42504 14.3238C5.17258 13.5797 5.02648 12.7824 5.02648 11.9586C5.02648 11.1347 5.17258 10.3375 5.41176 9.59342L5.40507 9.43495L1.66739 6.53223L1.5451 6.59039C0.7346 8.2115 0.269531 10.0319 0.269531 11.9586C0.269531 13.8853 0.7346 15.7056 1.5451 17.3267L5.42504 14.3238Z" fill="#FBBC05"/>
<path d="M12.2291 4.62403C14.4747 4.62403 15.9894 5.59402 16.8531 6.40461L20.2282 3.10928C18.1554 1.1826 15.4579 0 12.2291 0C7.55185 0 3.51243 2.68406 1.5459 6.59056L5.41256 9.59359C6.38263 6.7102 9.06669 4.62403 12.2291 4.62403Z" fill="#EB4335"/>
</g>
<defs>
<clipPath id="clip0_2418_14106">
<rect width="24" height="24" fill="white"/>
</clipPath>
</defs>
</svg>
