<svg width="24" height="24" viewBox="0 0 24 24" fill="none" xmlns="http://www.w3.org/2000/svg">
<g clip-path="url(#clip0_2418_14124)">
<path d="M22.6667 0H1.33333C0.596954 0 0 0.596954 0 1.33333V22.6667C0 23.403 0.596954 24 1.33333 24H22.6667C23.403 24 24 23.403 24 22.6667V1.33333C24 0.596954 23.403 0 22.6667 0Z" fill="#117EB8"/>
<path fill-rule="evenodd" clip-rule="evenodd" d="M4.37877 9.28301H7.58644V19.6036H4.37877V9.28301ZM5.9831 4.15268C7.00877 4.15268 7.8421 4.98601 7.8421 6.01167C7.8421 7.03834 7.00877 7.87201 5.9831 7.87201C5.73592 7.87669 5.49029 7.83204 5.26057 7.74069C5.03085 7.64933 4.82164 7.5131 4.64518 7.33995C4.46872 7.1668 4.32855 6.96021 4.23286 6.73226C4.13718 6.5043 4.08789 6.25956 4.08789 6.01234C4.08789 5.76512 4.13718 5.52038 4.23286 5.29242C4.32855 5.06447 4.46872 4.85788 4.64518 4.68473C4.82164 4.51158 5.03085 4.37535 5.26057 4.28399C5.49029 4.19264 5.73592 4.148 5.9831 4.15268ZM9.59844 9.28267H12.6751V10.693H12.7178C13.1461 9.88167 14.1924 9.02634 15.7528 9.02634C19.0008 9.02634 19.6008 11.164 19.6008 13.943V19.6036H16.3951V14.5846C16.3951 13.388 16.3731 11.8483 14.7284 11.8483C13.0594 11.8483 12.8031 13.152 12.8031 14.4983V19.6036H9.5981V9.28301L9.59844 9.28267Z" fill="white"/>
</g>
<defs>
<clipPath id="clip0_2418_14124">
<rect width="24" height="24" fill="white"/>
</clipPath>
</defs>
</svg>
