<svg width="63" height="63" viewBox="0 0 63 63" fill="none" xmlns="http://www.w3.org/2000/svg">
<rect x="0.25" y="0.779297" width="62" height="62" rx="10" fill="#FFBB37"/>
<g clip-path="url(#clip0_2418_13994)">
<path d="M46.25 45.9004C46.1328 41.1543 41.3281 37.0527 34.7656 35.998V33.5371C35.5859 32.7168 36.2305 31.4277 36.6406 30.3145C37.2266 30.0215 37.7539 29.377 38.0469 28.498C38.457 27.2676 38.2812 26.1543 37.6953 25.627C37.6953 25.2168 37.7539 24.748 37.6953 24.3379C37.5781 23.166 37.8125 22.5215 38.0469 21.9355C38.2227 21.4668 38.457 20.8809 38.2227 20.2363C37.4609 18.0098 35.1758 16.7793 31.8359 16.7793H31.3672C29.082 16.8965 28.3789 17.834 27.9102 18.7715C27.8516 18.8887 27.7344 19.0059 27.7344 19.0059C24.7461 19.2988 24.7461 21.8184 24.8047 23.8105V24.4551C24.8047 24.8066 24.8047 25.2168 24.8633 25.5684C24.1016 26.0957 23.9258 27.3262 24.5117 28.6152C24.8633 29.377 25.332 29.9043 25.8594 30.1973C26.2695 31.4277 26.9727 32.834 27.9102 33.7129V35.9395C21.2305 36.9941 16.3672 41.0957 16.25 45.9004V46.7793H46.25V45.9004ZM18.125 45.0215C18.8281 41.3301 23.1641 38.2832 28.9062 37.5801L29.668 37.5215V32.7754L29.3164 32.541C28.6133 32.0723 27.9102 30.8418 27.3828 29.2598L27.2656 28.791L26.7383 28.6738C26.6211 28.6738 26.3281 28.4395 26.1523 27.9121C26.0352 27.6191 25.9766 27.3848 25.918 27.209L26.8555 27.4434L26.6797 26.1543C26.6211 25.5684 26.5625 24.9824 26.5625 24.4551V23.752C26.5039 21.4082 26.6211 20.8809 27.9102 20.7637C28.9062 20.7051 29.2578 20.002 29.4922 19.5918C29.7266 19.0645 29.9609 18.5957 31.4258 18.5371H31.8359C33.3008 18.5371 35.8789 18.8301 36.5234 20.8223C36.5234 20.8809 36.4648 21.1152 36.4062 21.291C36.1133 21.9355 35.7617 22.9316 35.9375 24.5723C35.9961 24.8652 35.9375 25.334 35.8789 25.7441L35.7031 27.1504L36.5234 27.0918C36.5234 27.2676 36.4648 27.5605 36.3477 27.9121C36.1719 28.4395 35.9375 28.6738 35.9375 28.7324H35.293L35.1172 29.3184C34.5898 30.8418 33.9453 31.9551 33.3008 32.4238L32.9492 32.7168V37.5215L33.7695 37.6387C39.3945 38.3418 43.7305 41.3887 44.375 45.0215H18.125Z" fill="black"/>
</g>
<defs>
<clipPath id="clip0_2418_13994">
<rect width="30" height="30" fill="white" transform="matrix(1 0 0 -1 16.25 46.7793)"/>
</clipPath>
</defs>
</svg>
