<svg width="63" height="63" viewBox="0 0 63 63" fill="none" xmlns="http://www.w3.org/2000/svg">
<rect x="0.25" y="0.689453" width="62" height="62" rx="10" fill="#88BA9E"/>
<g clip-path="url(#clip0_2418_14010)">
<path d="M40.9766 18.5059C40.9766 21.377 38.5742 23.7793 35.6445 23.7793C32.7734 23.7793 30.3711 21.377 30.3711 18.5059H28.6133C28.6133 21.377 26.2109 23.7793 23.3398 23.7793C20.4102 23.7793 18.0078 21.377 18.0078 18.5059H16.25V30.5762C16.25 40.127 28.6133 44.6973 29.1406 44.873L29.4336 44.9902L29.7266 44.873C30.2539 44.6973 42.7344 40.3027 42.7344 30.5176V18.5059H40.9766ZM18.0078 30.5762V23.1348C19.2969 24.5996 21.2305 25.5371 23.3398 25.5371C25.4492 25.5371 27.3242 24.5996 28.6133 23.1348V42.7637C25.6836 41.416 18.0078 37.3145 18.0078 30.5762ZM40.9766 30.5176C40.9766 37.373 33.3594 41.416 30.3711 42.7051V23.1348C31.6602 24.5996 33.5352 25.5371 35.6445 25.5371C37.7539 25.5371 39.6875 24.5996 40.9766 23.1348V30.5176Z" fill="black"/>
</g>
<defs>
<clipPath id="clip0_2418_14010">
<rect width="30" height="30" fill="white" transform="matrix(1 0 0 -1 16.25 46.6895)"/>
</clipPath>
</defs>
</svg>
